<svg xmlns="http://www.w3.org/2000/svg" version="1.1" xmlns:xlink="http://www.w3.org/1999/xlink" xmlns:svgjs="http://svgjs.dev/svgjs" viewBox="0 0 800 800"><defs><linearGradient x1="50%" y1="0%" x2="50%" y2="100%" id="ccchaos-grad"><stop stop-color="hsl(206, 75%, 49%)" stop-opacity="1" offset="0%"></stop><stop stop-color="#b3b3ff" stop-opacity="1" offset="100%"></stop></linearGradient></defs><g stroke-width="2" stroke="url(#ccchaos-grad)" fill="none" stroke-linecap="round"><path d="M114.8 109.14Q123.73 110.83 132.67 112.66 141.61 114.54 150.55 116.4 159.48 118.16 168.42 119.75 177.36 121.1 186.3 122.16 195.23 122.89 204.17 123.24 213.11 123.22 222.05 122.82 230.98 122.06 239.92 120.96 248.86 119.58 257.8 117.97 266.73 116.2 275.67 114.33 284.61 112.45 293.55 110.63 302.48 108.96 311.42 107.49 320.36 106.28 329.3 105.4 338.23 104.87 347.17 104.71 356.11 104.93 365.05 105.53 373.98 106.48 382.92 107.73 391.86 109.24 400.8 110.95 409.73 112.78 418.67 114.67 427.61 116.52 436.55 118.27 445.48 119.85 454.42 121.18 463.36 122.22 472.3 122.92 481.23 123.26 490.17 123.21 499.11 122.78 508.05 121.99 516.98 120.88 525.92 119.48 534.86 117.85 543.8 116.07 552.73 114.2 561.67 112.33 570.61 110.52 579.55 108.85 588.48 107.4 597.42 106.21 606.36 105.35 615.3 104.84 624.23 104.71 633.17 104.96 642.11 105.58 651.05 106.55 659.98 107.83 668.92 109.35 682.4 116.46 686.99 130.8 686.95 139.74 686.8 148.69 686.57 157.63 686.29 166.57 685.97 175.52 685.66 184.46 685.38 193.41 685.16 202.35 685.03 211.29 685 220.24 685.06 229.18 685.22 238.13 685.46 247.07 685.75 256.01 686.07 264.96 686.38 273.9 686.65 282.85 686.85 291.79 686.97 300.73 686.99 309.68 686.91 318.62 686.74 327.57 686.49 336.51 686.19 345.45 685.87 354.4 685.57 363.34 685.3 372.29 685.11 381.23 685.01 390.18 685.01 399.12 685.1 408.06 685.29 417.01 685.55 425.95 685.85 434.9 686.17 443.84 686.47 452.78 686.72 461.73 686.9 470.67 686.99 479.62 686.98 488.56 686.86 497.5 686.66 506.45 686.4 515.39 686.09 524.34 685.77 533.28 685.48 542.22 685.24 551.17 685.07 560.11 685 569.06 685.03 578 685.15 586.94 685.36 595.89 685.64 604.83 685.95 613.78 686.27 622.72 686.55 631.66 686.79 640.61 686.94 649.55 686.99 658.5 686.95 667.44 682.23 680.29 668.71 683.14 659.77 682.2 650.84 681.42 641.9 680.82 632.96 680.44 624.02 680.29 615.09 680.37 606.15 680.68 597.21 681.21 588.27 681.94 579.34 682.83 570.4 683.86 561.46 684.97 552.52 686.12 543.59 687.27 534.65 688.37 525.71 689.37 516.77 690.23 507.84 690.92 498.9 691.4 489.96 691.66 481.02 691.69 472.09 691.49 463.15 691.05 454.21 690.42 445.27 689.59 436.34 688.63 427.4 687.55 418.46 686.41 409.52 685.25 400.59 684.12 391.65 683.07 382.71 682.14 373.77 681.37 364.84 680.79 355.9 680.42 346.96 680.28 338.02 680.38 329.09 680.71 320.15 681.25 311.21 681.99 302.27 682.9 293.34 683.93 284.4 685.04 275.46 686.2 266.52 687.35 257.59 688.44 248.65 689.43 239.71 690.28 230.77 690.95 221.84 691.42 212.9 691.67 203.96 691.68 195.02 691.46 186.09 691.02 177.15 690.37 168.21 689.53 159.27 688.56 150.34 687.47 141.4 686.33 132.46 685.17 119.17 679.04 114.95 665.07 114.99 656.11 114.94 647.14 114.79 638.17 114.55 629.21 114.27 620.24 113.95 611.27 113.64 602.31 113.36 593.34 113.15 584.37 113.03 575.41 113 566.44 113.07 557.47 113.24 548.5 113.48 539.54 113.77 530.57 114.09 521.6 114.4 512.64 114.66 503.67 114.86 494.7 114.98 485.74 114.99 476.77 114.9 467.8 114.72 458.84 114.47 449.87 114.17 440.9 113.85 431.94 113.55 422.97 113.29 414 113.1 405.04 113.01 396.07 113.01 387.1 113.11 378.14 113.3 369.17 113.57 360.2 113.87 351.24 114.19 342.27 114.49 333.3 114.74 324.34 114.91 315.37 114.99 306.4 114.97 297.44 114.85 288.47 114.65 279.5 114.38 270.54 114.07 261.57 113.75 252.6 113.46 243.64 113.22 234.67 113.06 225.7 113 216.74 113.03 207.77 113.16 198.8 113.38 189.84 113.66 180.87 113.97 171.9 114.29 162.94 114.57 153.97 114.8 145 114.95 136.04 114.99 127.07 114.94 118.1 114.8 109.14" stroke-dasharray="9 5" transform="rotate(0, 400, 400)" opacity="1.00"></path><path d="M125.96 122.26Q143.15 125.82 160.34 129.26 177.53 132.05 194.71 133.78 211.9 134.18 229.09 133.2 246.28 130.99 263.46 127.87 280.65 124.32 297.84 120.87 315.03 118.04 332.21 116.26 349.4 115.8 366.59 116.72 383.78 118.89 400.96 121.97 418.15 125.52 435.34 128.98 452.53 131.85 469.71 133.68 486.9 134.2 504.09 133.34 521.28 131.22 538.46 128.16 555.65 124.62 572.84 121.15 590.03 118.25 607.21 116.36 624.4 115.78 641.59 116.59 658.78 118.66 675.96 121.69 675.93 138.91 675.55 156.14 674.97 173.36 674.4 190.59 674.05 207.82 674.04 225.04 674.38 242.27 674.95 259.5 675.53 276.72 675.92 293.95 675.97 311.17 675.67 328.4 675.12 345.63 674.52 362.85 674.1 380.08 674.01 397.3 674.27 414.53 674.8 431.76 675.4 448.98 675.85 466.21 675.99 483.43 675.77 500.66 675.26 517.89 674.66 535.11 674.18 552.34 674 569.56 674.18 586.79 674.66 604.02 675.27 621.24 675.77 638.47 675.99 655.69 675.85 672.92 658.66 671.02 641.48 669.72 624.29 669.22 607.1 669.58 589.91 670.76 572.73 672.58 555.54 674.76 538.35 676.98 521.16 678.9 503.98 680.23 486.79 680.77 469.6 680.44 452.41 679.29 435.23 677.5 418.04 675.32 400.85 673.1 383.66 671.16 366.48 669.8 349.29 669.23 332.1 669.52 314.91 670.63 297.73 672.41 280.54 674.57 263.35 676.8 246.16 678.75 228.98 680.14 211.79 680.76 194.6 680.5 177.41 679.42 160.23 677.67 143.04 675.51 125.85 673.28 125.99 656.06 125.77 638.84 125.27 621.62 124.66 604.41 124.18 587.19 124 569.97 124.18 552.75 124.66 535.53 125.26 518.31 125.77 501.09 125.99 483.87 125.85 466.65 125.4 449.43 124.8 432.21 124.27 414.99 124.01 397.77 124.1 380.55 124.52 363.34 125.12 346.12 125.67 328.9 125.97 311.68 125.92 294.46 125.53 277.24 124.95 260.02 124.38 242.8 124.04 225.58 124.05 208.36 124.4 191.14 124.97 173.92 125.55 156.7 125.93 139.48 125.96 122.26" stroke-dasharray="0 11" transform="rotate(4.04, 400, 400)" opacity="0.96"></path><path d="M136.98 135.53Q153.48 138.91 169.98 141.88 186.48 144.04 202.98 145.08 219.48 144.85 235.98 143.4 252.48 140.91 268.98 137.74 285.48 134.33 301.98 131.15 318.48 128.65 334.98 127.16 351.48 126.9 367.98 127.91 384.48 130.04 400.98 133 417.48 136.37 433.98 139.69 450.48 142.5 466.98 144.41 483.48 145.14 499.98 144.6 516.48 142.87 532.98 140.18 549.48 136.91 565.98 133.51 582.48 130.46 598.98 128.18 615.48 126.98 631.98 127.03 648.48 128.34 664.98 130.7 664.74 147.26 664.24 163.82 663.66 180.38 663.19 196.94 663 213.5 663.14 230.06 663.57 246.62 664.14 263.18 664.67 279.74 664.96 296.3 664.94 312.86 664.59 329.42 664.04 345.98 663.48 362.54 663.09 379.1 663.01 395.66 663.26 412.21 663.75 428.77 664.33 445.33 664.8 461.89 664.99 478.45 664.85 495.01 664.42 511.57 663.85 528.13 663.32 544.69 663.02 561.25 663.05 577.81 663.4 594.37 663.95 610.93 664.51 627.49 664.9 644.05 664.98 660.61 648.48 659.1 631.98 658.27 615.48 658.23 598.98 659 582.48 660.46 565.98 662.41 549.48 664.58 532.98 666.67 516.48 668.39 499.98 669.5 483.48 669.84 466.98 669.37 450.48 668.16 433.98 666.36 417.48 664.24 400.98 662.08 384.48 660.19 367.98 658.82 351.48 658.18 334.98 658.35 318.48 659.3 301.98 660.9 285.48 662.93 268.98 665.11 252.48 667.14 235.98 668.73 219.48 669.66 202.98 669.8 186.48 669.14 169.98 667.76 153.48 665.86 136.98 663.7 136.9 647.19 136.51 630.69 135.95 614.18 135.4 597.68 135.05 581.17 135.02 564.67 135.32 548.16 135.85 531.66 136.42 515.15 136.85 498.65 136.99 482.14 136.8 465.64 136.33 449.13 135.75 432.63 135.26 416.12 135.01 399.62 135.09 383.11 135.48 366.6 136.04 350.1 136.59 333.59 136.94 317.09 136.96 300.58 136.67 284.08 136.14 267.57 135.57 251.07 135.14 234.56 135 218.06 135.19 201.55 135.66 185.05 136.24 168.54 136.74 152.04 136.98 135.53" stroke-dasharray="1 11" transform="rotate(8.08, 400, 400)" opacity="0.92"></path><path d="M147.85 148.79Q163.67 151.81 179.48 154.21 195.29 155.69 211.1 156.06 226.92 155.27 242.73 153.42 258.54 150.75 274.35 147.61 290.17 144.38 305.98 141.49 321.79 139.3 337.6 138.1 353.42 138.03 369.23 139.11 385.04 141.19 400.85 144.02 416.67 147.23 432.48 150.4 448.29 153.15 464.1 155.1 479.92 156.02 495.73 155.79 511.54 154.43 527.35 152.13 543.17 149.16 558.98 145.92 574.79 142.82 590.6 140.25 606.42 138.54 622.23 137.91 638.04 138.45 653.85 140.07 653.45 155.96 652.9 171.85 652.38 187.73 652.05 203.62 652.02 219.51 652.29 235.4 652.78 251.29 653.33 267.17 653.78 283.06 653.99 298.95 653.89 314.84 653.51 330.73 652.97 346.61 652.44 362.5 652.08 378.39 652.01 394.28 652.24 410.16 652.71 426.05 653.26 441.94 653.74 457.83 653.98 473.72 653.92 489.6 653.57 505.49 653.04 521.38 652.5 537.27 652.11 553.16 652 569.04 652.19 584.93 652.64 600.82 653.19 616.71 653.69 632.59 653.97 648.48 638.15 647.42 622.34 647.08 606.53 647.49 590.72 648.6 574.9 650.27 559.09 652.3 543.28 654.41 527.47 656.34 511.65 657.84 495.84 658.73 480.03 658.88 464.22 658.28 448.4 657 432.59 655.22 416.78 653.15 400.97 651.06 385.15 649.21 369.34 647.85 353.53 647.15 337.72 647.19 321.9 647.98 306.09 649.41 290.28 651.29 274.47 653.39 258.65 655.44 242.84 657.18 227.03 658.39 211.22 658.9 195.4 658.66 179.59 657.7 163.78 656.13 147.97 654.17 147.69 638.37 147.19 622.58 146.64 606.79 146.19 591 146 575.2 146.11 559.41 146.5 543.62 147.04 527.82 147.57 512.03 147.92 496.24 147.98 480.44 147.74 464.65 147.26 448.86 146.71 433.07 146.24 417.27 146.01 401.48 146.08 385.69 146.44 369.89 146.97 354.1 147.51 338.31 147.89 322.52 147.99 306.72 147.78 290.93 147.33 275.14 146.78 259.34 146.29 243.55 146.02 227.76 146.05 211.96 146.38 196.17 146.9 180.38 147.45 164.59 147.85 148.79" stroke-dasharray="0 3" transform="rotate(12.12, 400, 400)" opacity="0.89"></path><path d="M158.59 161.91Q173.72 164.42 188.84 166.17 203.97 166.97 219.09 166.72 234.22 165.45 249.34 163.3 264.47 160.54 279.59 157.48 294.72 154.47 309.84 151.88 324.97 150.01 340.09 149.07 355.22 149.17 370.34 150.31 385.47 152.34 400.59 155.04 415.72 158.08 430.84 161.12 445.97 163.78 461.09 165.77 476.22 166.85 491.34 166.9 506.47 165.9 521.59 163.97 536.72 161.35 551.84 158.34 566.97 155.28 582.09 152.54 597.22 150.44 612.34 149.23 627.47 149.04 642.59 149.89 642.09 165.1 641.57 180.31 641.16 195.52 641 210.73 641.11 225.94 641.48 241.15 641.99 256.36 642.51 271.57 642.88 286.78 642.99 301.99 642.83 317.2 642.42 332.41 641.9 347.62 641.4 362.83 641.07 378.04 641.01 393.25 641.22 408.46 641.66 423.67 642.19 438.88 642.67 454.09 642.95 469.3 642.96 484.51 642.7 499.72 642.24 514.93 641.7 530.14 641.25 545.35 641.01 560.56 641.05 575.77 641.36 590.98 641.85 606.19 642.38 621.4 642.8 636.61 627.68 636.04 612.55 636.17 597.43 636.98 582.3 638.37 567.18 640.19 552.05 642.22 536.93 644.23 521.8 645.97 506.68 647.24 491.55 647.91 476.43 647.88 461.3 647.16 446.18 645.84 431.05 644.07 415.93 642.05 400.8 640.03 385.68 638.24 370.55 636.89 355.43 636.13 340.3 636.06 325.18 636.69 310.05 637.93 294.93 639.66 279.8 641.65 264.68 643.68 249.55 645.52 234.43 646.95 219.3 647.79 204.18 647.96 189.05 647.43 173.93 646.26 158.8 644.6 158.38 629.51 157.85 614.43 157.36 599.34 157.05 584.26 157.01 569.18 157.25 554.09 157.7 539.01 158.24 523.92 158.7 508.84 158.96 493.76 158.95 478.67 158.67 463.59 158.19 448.5 157.66 433.42 157.22 418.34 157.01 403.25 157.07 388.17 157.4 373.08 157.9 358 158.42 342.92 158.83 327.83 158.99 312.75 158.88 297.67 158.51 282.58 157.99 267.5 157.48 252.41 157.11 237.33 157 222.25 157.16 207.16 157.57 192.08 158.09 176.99 158.59 161.91" stroke-dasharray="7 8" transform="rotate(16.16, 400, 400)" opacity="0.85"></path><path d="M169.24 174.75Q183.68 176.65 198.11 177.73 212.55 177.88 226.99 177.08 241.43 175.42 255.86 173.07 270.3 170.29 284.74 167.37 299.18 164.62 313.61 162.34 328.05 160.77 342.49 160.08 356.93 160.33 371.36 161.52 385.8 163.5 400.24 166.06 414.68 168.94 429.11 171.83 443.55 174.41 457.99 176.42 472.43 177.63 486.86 177.92 501.3 177.26 515.74 175.72 530.18 173.46 544.61 170.72 559.05 167.8 573.49 165.01 587.93 162.64 602.36 160.95 616.8 160.12 631.24 160.24 630.73 174.76 630.29 189.29 630.03 203.81 630.02 218.34 630.27 232.87 630.7 247.39 631.21 261.92 631.67 276.44 631.94 290.97 631.98 305.49 631.75 320.02 631.33 334.55 630.82 349.07 630.36 363.6 630.06 378.12 630.01 392.65 630.21 407.18 630.61 421.7 631.12 436.23 631.59 450.75 631.91 465.28 631.99 479.81 631.81 494.33 631.42 508.86 630.92 523.38 630.44 537.91 630.1 552.43 630 566.96 630.15 581.49 630.53 596.01 631.02 610.54 631.51 625.06 617.08 624.99 602.64 625.55 588.2 626.69 573.76 628.3 559.33 630.19 544.89 632.16 530.45 634.02 516.01 635.55 501.58 636.59 487.14 637.04 472.7 636.84 458.26 636.02 443.83 634.66 429.39 632.91 414.95 630.96 400.51 629.01 386.08 627.27 371.64 625.93 357.2 625.13 342.76 624.96 328.33 625.43 313.89 626.49 299.45 628.03 285.01 629.89 270.58 631.87 256.14 633.76 241.7 635.35 227.26 636.47 212.83 637.01 198.39 636.91 183.95 636.18 169.51 634.89 169.02 620.51 168.53 606.13 168.15 591.76 168 577.38 168.1 563 168.44 548.62 168.92 534.24 169.42 519.86 169.81 505.48 169.99 491.1 169.91 476.72 169.59 462.34 169.12 447.96 168.61 433.58 168.21 419.2 168.01 404.82 168.06 390.44 168.36 376.06 168.82 361.68 169.33 347.31 169.75 332.93 169.98 318.55 169.94 304.17 169.67 289.79 169.21 275.41 168.7 261.03 168.27 246.65 168.02 232.27 168.03 217.89 168.29 203.51 168.73 189.13 169.24 174.75" stroke-dasharray="7 9" transform="rotate(20.200000000000003, 400, 400)" opacity="0.81"></path><path d="M179.85 187.21Q193.6 188.45 207.35 188.87 221.1 188.43 234.85 187.17 248.6 185.22 262.35 182.76 276.1 180.04 289.85 177.31 303.6 174.84 317.35 172.87 331.1 171.59 344.85 171.12 358.6 171.51 372.35 172.73 386.1 174.65 399.85 177.09 413.6 179.81 427.35 182.54 441.1 185.03 454.85 187.04 468.6 188.36 482.35 188.87 496.1 188.52 509.85 187.34 523.6 185.46 537.35 183.04 551.1 180.33 564.85 177.59 578.6 175.08 592.35 173.05 606.1 171.69 619.85 171.13 619.4 184.97 619.09 198.8 619 212.64 619.14 226.47 619.48 240.31 619.95 254.14 620.42 267.98 620.8 281.82 620.98 295.65 620.94 309.49 620.67 323.32 620.24 337.16 619.75 351 619.32 364.83 619.05 378.67 619.01 392.5 619.19 406.34 619.57 420.17 620.05 434.01 620.51 447.85 620.85 461.68 620.99 475.52 620.9 489.35 620.59 503.19 620.14 517.03 619.66 530.86 619.25 544.7 619.02 558.53 619.03 572.37 619.26 586.2 619.66 600.04 620.15 613.88 606.4 614.26 592.65 615.2 578.9 616.6 565.15 618.33 551.4 620.23 537.65 622.1 523.9 623.76 510.15 625.07 496.4 625.88 482.65 626.12 468.9 625.76 455.15 624.85 441.4 623.47 427.65 621.75 413.9 619.86 400.15 617.99 386.4 616.31 372.65 614.98 358.9 614.14 345.15 613.87 331.4 614.19 317.65 615.08 303.9 616.44 290.15 618.14 276.4 620.02 262.65 621.91 248.9 623.6 235.15 624.95 221.4 625.82 207.65 626.12 193.9 625.83 180.15 624.97 179.66 611.29 179.26 597.61 179.03 583.93 179.02 570.25 179.25 556.57 179.66 542.89 180.14 529.21 180.59 515.53 180.9 501.85 180.99 488.17 180.85 474.49 180.51 460.81 180.05 447.13 179.57 433.45 179.19 419.77 179.01 406.09 179.05 392.41 179.32 378.73 179.75 365.05 180.24 351.37 180.67 337.69 180.94 324.01 180.98 310.33 180.8 296.65 180.42 282.97 179.95 269.29 179.48 255.61 179.14 241.93 179 228.25 179.09 214.57 179.4 200.89 179.85 187.21" stroke-dasharray="6 3" transform="rotate(24.24, 400, 400)" opacity="0.77"></path><path d="M190.48 199.2Q203.54 199.78 216.61 199.58 229.67 198.64 242.73 197.03 255.79 194.89 268.86 192.41 281.92 189.8 294.98 187.3 308.04 185.13 321.11 183.46 334.17 182.46 347.23 182.2 360.29 182.71 373.36 183.95 386.42 185.8 399.48 188.11 412.54 190.67 425.61 193.26 438.67 195.65 451.73 197.63 464.79 199.03 477.86 199.73 490.92 199.67 503.98 198.85 517.04 197.33 530.11 195.27 543.17 192.83 556.23 190.23 569.29 187.7 582.36 185.45 601.79 189.7 608 208.85 608.06 221.99 608.32 235.13 608.73 248.28 609.19 261.42 609.61 274.56 609.9 287.7 609.99 300.84 609.88 313.98 609.57 327.12 609.14 340.26 608.68 353.4 608.29 366.54 608.05 379.68 608.01 392.82 608.18 405.96 608.53 419.1 608.97 432.24 609.42 445.38 609.78 458.52 609.98 471.67 609.96 484.81 609.73 497.95 609.35 511.09 608.89 524.23 608.46 537.37 608.14 550.51 608 563.65 608.07 576.79 608.34 589.93 608.76 603.07 595.69 603.86 582.63 605.1 569.57 606.68 556.51 608.46 543.44 610.29 530.38 612 517.32 613.45 504.26 614.52 491.19 615.1 478.13 615.14 465.07 614.65 452.01 613.66 438.94 612.27 425.88 610.59 412.82 608.77 399.76 606.97 386.69 605.34 373.63 604.04 360.57 603.17 347.51 602.81 334.44 602.99 321.38 603.7 308.32 604.87 295.26 606.4 282.19 608.16 269.13 609.99 256.07 611.73 243.01 613.24 229.94 614.37 216.88 615.04 203.82 615.17 190.76 614.77 190.34 601.78 190.07 588.79 190 575.81 190.14 562.82 190.46 549.83 190.89 536.85 191.35 523.86 191.73 510.87 191.96 497.89 191.98 484.9 191.78 471.92 191.42 458.93 190.97 445.94 190.53 432.96 190.18 419.97 190.01 406.98 190.05 394 190.29 381.01 190.68 368.02 191.14 355.04 191.57 342.05 191.88 329.06 191.99 316.08 191.9 303.09 191.61 290.11 191.19 277.12 190.73 264.13 190.32 251.15 190.06 238.16 190 225.17 190.15 212.19 190.48 199.2" stroke-dasharray="5 5" transform="rotate(28.28, 400, 400)" opacity="0.73"></path><path d="M201.19 210.67Q213.57 210.62 225.94 209.9 238.32 208.55 250.69 206.69 263.07 204.46 275.44 202.04 287.82 199.61 300.19 197.37 312.57 195.49 324.94 194.13 337.32 193.38 349.69 193.31 362.07 193.92 374.44 195.17 386.82 196.95 399.19 199.13 411.57 201.54 423.94 203.98 436.32 206.26 448.69 208.21 461.07 209.67 473.44 210.53 485.82 210.71 498.19 210.22 510.57 209.07 522.94 207.37 535.32 205.25 547.69 202.87 560.07 200.42 572.44 198.1 590.92 201.53 597.02 219.41 597.22 231.85 597.57 244.29 597.99 256.73 598.42 269.18 598.77 281.62 598.96 294.06 598.98 306.5 598.8 318.94 598.47 331.38 598.04 343.82 597.61 356.26 597.25 368.7 597.04 381.15 597.01 393.59 597.16 406.03 597.48 418.47 597.9 430.91 598.33 443.35 598.7 455.79 598.94 468.23 598.99 480.67 598.85 493.12 598.55 505.56 598.14 518 597.7 530.44 597.32 542.88 597.07 555.32 597 567.76 597.11 580.2 597.4 592.64 585.03 593.76 572.65 595.2 560.28 596.87 547.9 598.62 535.53 600.33 523.15 601.85 510.78 603.07 498.4 603.89 486.03 604.24 473.65 604.11 461.28 603.5 448.9 602.45 436.53 601.05 424.15 599.41 411.78 597.67 399.4 595.94 387.03 594.38 374.65 593.1 362.28 592.21 349.9 591.77 337.53 591.82 325.15 592.36 312.78 593.34 300.4 594.68 288.03 596.29 275.65 598.02 263.28 599.76 250.9 601.36 238.53 602.69 226.15 603.66 207.45 598.05 201 579.61 201.07 567.32 201.32 555.02 201.7 542.72 202.14 530.42 202.55 518.12 202.85 505.83 202.99 493.53 202.94 481.23 202.7 468.93 202.33 456.63 201.9 444.33 201.48 432.04 201.16 419.74 201.01 407.44 201.04 395.14 201.25 382.84 201.61 370.55 202.04 358.25 202.47 345.95 202.8 333.65 202.98 321.35 202.96 309.05 202.77 296.76 202.42 284.46 201.99 272.16 201.57 259.86 201.22 247.56 201.02 235.26 201.01 222.97 201.19 210.67" stroke-dasharray="8 3" transform="rotate(32.32, 400, 400)" opacity="0.70"></path><path d="M212.03 221.59Q223.71 221 235.4 219.84 247.09 218.21 258.78 216.21 270.46 213.98 282.15 211.69 293.84 209.48 305.53 207.53 317.21 205.95 328.9 204.87 340.59 204.36 352.28 204.46 363.96 205.15 375.65 206.4 387.34 208.1 399.03 210.15 410.71 212.4 422.4 214.69 434.09 216.87 445.78 218.77 457.46 220.26 469.15 221.25 480.84 221.65 492.53 221.45 504.21 220.66 515.9 219.33 527.59 217.55 539.28 215.46 550.96 213.19 562.65 210.91 580.17 213.72 586.16 230.41 586.46 242.15 586.85 253.89 587.26 265.63 587.63 277.36 587.89 289.1 587.99 300.84 587.93 312.58 587.7 324.32 587.35 336.06 586.95 347.8 586.54 359.53 586.22 371.27 586.03 383.01 586.01 394.75 586.15 406.49 586.44 418.23 586.83 429.97 587.24 441.7 587.61 453.44 587.88 465.18 587.99 476.92 587.94 488.66 587.72 500.4 587.37 512.14 586.97 523.87 586.56 535.61 586.24 547.35 586.04 559.09 586 570.83 586.14 582.57 574.45 583.91 562.76 585.47 551.08 587.14 539.39 588.79 527.7 590.32 516.01 591.62 504.33 592.59 492.64 593.17 480.95 593.32 469.26 593.02 457.58 592.3 445.89 591.21 434.2 589.82 422.51 588.24 410.83 586.56 399.14 584.92 387.45 583.42 375.76 582.18 364.08 581.27 352.39 580.76 340.7 580.69 329.01 581.06 317.33 581.85 305.64 583 293.95 584.43 282.26 586.04 270.58 587.72 258.89 589.34 247.2 590.8 235.51 592 217.91 587.25 212.04 570.04 212.24 558.43 212.56 546.81 212.97 535.2 213.37 523.58 213.72 511.97 213.94 500.35 213.99 488.74 213.88 477.12 213.61 465.51 213.24 453.89 212.83 442.28 212.44 430.66 212.15 419.05 212.01 407.43 212.03 395.82 212.22 384.2 212.54 372.59 212.95 360.97 213.35 349.36 213.7 337.74 213.93 326.13 213.99 314.51 213.89 302.9 213.63 291.28 213.26 279.67 212.85 268.05 212.46 256.44 212.16 244.82 212.01 233.21 212.03 221.59" stroke-dasharray="5 3" transform="rotate(36.36, 400, 400)" opacity="0.66"></path><path d="M223.01 231.99Q234.01 230.95 245.01 229.48 256.01 227.68 267.01 225.64 278.01 223.5 289.01 221.39 300.01 219.44 311.01 217.78 322.01 216.5 333.01 215.69 344.01 215.4 355.01 215.64 366.01 216.39 377.01 217.63 388.01 219.25 399.01 221.18 410.01 223.27 421.01 225.42 432.01 227.47 443.01 229.31 454.01 230.82 465.01 231.9 476.01 232.49 487.01 232.56 498.01 232.09 509.01 231.12 520.01 229.7 531.01 227.93 542.01 225.92 553.01 223.78 569.57 226.19 575.4 241.76 575.75 252.79 576.14 263.83 576.51 274.86 576.8 285.89 576.96 296.93 576.98 307.96 576.85 319 576.59 330.03 576.24 341.07 575.85 352.1 575.48 363.14 575.19 374.17 575.02 385.2 575.01 396.24 575.14 407.27 575.4 418.31 575.75 429.34 576.14 440.38 576.51 451.41 576.8 462.45 576.97 473.48 576.98 484.51 576.85 495.55 576.59 506.58 576.24 517.62 575.85 528.65 575.48 539.69 575.19 550.72 569.52 568.01 553.01 575.84 542.01 577.43 531.01 578.92 520.01 580.24 509.01 581.29 498.01 582.02 487.01 582.37 476.01 582.32 465.01 581.88 454.01 581.07 443.01 579.95 432.01 578.58 421.01 577.05 410.01 575.46 399.01 573.9 388.01 572.47 377.01 571.26 366.01 570.34 355.01 569.77 344.01 569.6 333.01 569.82 322.01 570.42 311.01 571.37 300.01 572.61 289.01 574.06 278.01 575.63 267.01 577.22 256.01 578.73 245.01 580.08 228.52 576.09 223.19 560.07 223.48 549.13 223.85 538.2 224.24 527.26 224.59 516.33 224.85 505.39 224.98 494.45 224.97 483.52 224.8 472.58 224.51 461.64 224.14 450.71 223.75 439.77 223.4 428.84 223.14 417.9 223.01 406.96 223.02 396.03 223.19 385.09 223.48 374.16 223.85 363.22 224.24 352.28 224.59 341.35 224.85 330.41 224.98 319.48 224.96 308.54 224.8 297.6 224.51 286.67 224.14 275.73 223.75 264.79 223.4 253.86 223.14 242.92 223.01 231.99" stroke-dasharray="2 6" transform="rotate(40.400000000000006, 400, 400)" opacity="0.62"></path><path d="M234.14 241.9Q244.45 240.54 254.76 238.89 265.07 237.02 275.39 235.04 285.7 233.05 296.01 231.18 306.32 229.51 316.64 228.14 326.95 227.15 337.26 226.59 347.57 226.48 357.89 226.84 368.2 227.65 378.51 228.86 388.82 230.4 399.14 232.2 409.45 234.15 419.76 236.14 430.07 238.07 440.39 239.84 450.7 241.34 461.01 242.49 471.32 243.23 481.64 243.52 491.95 243.35 502.26 242.72 512.57 241.66 522.89 240.25 533.2 238.54 543.51 236.64 559.1 238.83 564.7 253.34 565.07 263.67 565.42 274 565.72 284.33 565.92 294.66 565.99 304.99 565.94 315.32 565.75 325.65 565.47 335.98 565.12 346.31 564.75 356.64 564.42 366.97 564.16 377.3 564.02 387.63 564.01 397.96 564.13 408.29 564.36 418.62 564.68 428.95 565.05 439.28 565.4 449.61 565.7 459.94 565.91 470.27 565.99 480.6 565.94 490.93 565.77 501.26 565.49 511.59 565.14 521.92 564.77 532.25 564.44 542.58 558.94 558.82 543.4 566.24 533.09 567.68 522.77 568.98 512.46 570.05 502.15 570.85 491.84 571.33 481.52 571.46 471.21 571.24 460.9 570.68 450.59 569.8 440.27 568.67 429.96 567.33 419.65 565.86 409.34 564.35 399.02 562.88 388.71 561.51 378.4 560.34 368.09 559.43 357.77 558.81 347.46 558.54 337.15 558.62 326.84 559.05 316.52 559.8 306.21 560.84 295.9 562.1 285.59 563.52 275.27 565.03 264.96 566.53 254.65 567.94 239.26 564.58 234.44 549.71 234.77 539.45 235.14 529.19 235.49 518.93 235.77 508.67 235.94 498.41 235.99 488.14 235.91 477.88 235.7 467.62 235.4 457.36 235.05 447.1 234.68 436.84 234.36 426.58 234.13 416.32 234.01 406.06 234.02 395.8 234.16 385.54 234.42 375.28 234.75 365.02 235.12 354.76 235.47 344.5 235.75 334.24 235.94 323.98 235.99 313.72 235.92 303.46 235.72 293.2 235.42 282.94 235.07 272.68 234.7 262.42 234.38 252.16 234.14 241.9" stroke-dasharray="2 0" transform="rotate(44.44, 400, 400)" opacity="0.58"></path><path d="M245.4 251.4Q255.02 249.85 264.65 248.13 274.27 246.3 283.9 244.46 293.52 242.69 303.15 241.08 312.77 239.7 322.4 238.62 332.02 237.9 341.65 237.56 351.27 237.62 360.9 238.08 370.52 238.92 380.15 240.1 389.77 241.55 399.4 243.22 409.02 245.02 418.65 246.87 428.27 248.68 437.9 250.35 447.52 251.82 457.15 253.02 466.77 253.87 476.4 254.36 486.02 254.44 495.65 254.12 505.27 253.42 514.9 252.36 524.52 250.99 534.15 249.39 548.74 251.52 554.04 265.04 554.38 274.67 554.67 284.29 554.88 293.92 554.98 303.55 554.98 313.17 554.85 322.8 554.63 332.43 554.33 342.05 553.99 351.68 553.66 361.31 553.36 370.93 553.14 380.56 553.01 390.18 553.01 399.81 553.11 409.44 553.32 419.06 553.61 428.69 553.95 438.32 554.29 447.94 554.59 457.57 554.83 467.2 554.97 476.82 554.99 486.45 554.9 496.08 554.7 505.7 554.42 515.33 554.09 524.96 553.75 534.58 548.5 549.73 533.94 556.62 524.31 557.86 514.69 558.91 505.06 559.73 495.44 560.27 485.81 560.52 476.19 560.45 466.56 560.08 456.94 559.42 447.31 558.5 437.69 557.36 428.06 556.07 418.44 554.67 408.81 553.24 399.19 551.85 389.56 550.56 379.94 549.44 370.31 548.53 360.69 547.88 351.06 547.52 341.44 547.48 331.81 547.74 322.19 548.3 312.56 549.13 302.94 550.2 293.31 551.44 283.69 552.81 274.06 554.23 264.44 555.64 250.13 552.78 245.75 538.99 246.09 529.41 246.42 519.82 246.7 510.23 246.9 500.65 246.99 491.06 246.97 481.48 246.83 471.89 246.59 462.3 246.29 452.72 245.95 443.13 245.61 433.54 245.32 423.96 245.11 414.37 245.01 404.78 245.01 395.2 245.14 385.61 245.36 376.02 245.66 366.44 245.99 356.85 246.33 347.26 246.63 337.68 246.85 328.09 246.98 318.5 246.98 308.92 246.88 299.33 246.67 289.74 246.38 280.16 246.04 270.57 245.7 260.98 245.4 251.4" stroke-dasharray="3 9" transform="rotate(48.48, 400, 400)" opacity="0.54"></path><path d="M256.75 260.59Q265.69 258.98 274.63 257.3 283.56 255.6 292.5 253.96 301.44 252.44 310.38 251.11 319.31 250.03 328.25 249.23 337.19 248.74 346.13 248.6 355.06 248.81 364 249.35 372.94 250.2 381.88 251.33 390.81 252.7 399.75 254.24 408.69 255.9 417.63 257.6 426.56 259.28 435.5 260.86 444.44 262.28 453.38 263.49 462.31 264.43 471.25 265.06 480.19 265.36 489.13 265.32 498.06 264.94 507 264.23 515.94 263.22 524.88 261.95 538.44 264.14 543.38 276.72 543.65 285.65 543.85 294.57 543.97 303.5 543.99 312.42 543.91 321.35 543.74 330.27 543.49 339.2 543.19 348.12 542.87 357.05 542.57 365.97 542.3 374.9 542.11 383.82 542.01 392.75 542.01 401.67 542.1 410.6 542.29 419.52 542.55 428.45 542.85 437.37 543.17 446.3 543.47 455.22 543.72 464.15 543.9 473.07 543.99 482 543.98 490.92 543.86 499.85 543.66 508.77 543.4 517.7 543.09 526.62 538.16 540.64 524.6 546.9 515.67 547.89 506.73 548.69 497.79 549.25 488.85 549.55 479.92 549.58 470.98 549.34 462.04 548.85 453.1 548.11 444.17 547.16 435.23 546.04 426.29 544.79 417.35 543.47 408.42 542.13 399.48 540.83 390.54 539.62 381.6 538.54 372.67 537.65 363.73 536.97 354.79 536.55 345.85 536.39 336.92 536.5 327.98 536.88 319.04 537.51 310.1 538.37 301.17 539.41 292.23 540.6 283.29 541.9 274.35 543.23 261.09 540.73 257.09 528 257.4 519.08 257.66 510.17 257.86 501.25 257.98 492.34 257.99 483.43 257.9 474.51 257.72 465.6 257.47 456.69 257.17 447.77 256.85 438.86 256.55 429.95 256.29 421.03 256.1 412.12 256.01 403.2 256.01 394.29 256.11 385.38 256.3 376.46 256.57 367.55 256.87 358.64 257.19 349.72 257.49 340.81 257.74 331.9 257.91 322.98 257.99 314.07 257.97 305.16 257.85 296.24 257.65 287.33 257.38 278.41 257.07 269.5 256.75 260.59" stroke-dasharray="6 11" transform="rotate(52.52, 400, 400)" opacity="0.51"></path><path d="M268.14 269.59Q284.64 266.48 301.14 263.59 317.64 261.31 334.14 259.96 350.64 259.72 367.14 260.64 383.64 262.58 400.14 265.27 416.64 268.34 433.14 271.36 449.64 273.92 466.14 275.65 482.64 276.32 499.14 275.83 515.64 274.25 532.14 271.81 532.67 288.26 532.96 304.71 532.94 321.16 532.59 337.62 532.04 354.07 531.48 370.52 531.09 386.98 531.01 403.43 531.26 419.88 531.75 436.33 532.33 452.79 532.8 469.24 532.99 485.69 532.85 502.14 532.42 518.6 531.85 535.05 515.35 537.01 498.85 538.28 482.35 538.67 465.85 538.13 449.35 536.74 432.85 534.69 416.35 532.27 399.85 529.81 383.35 527.65 366.85 526.1 350.35 525.36 333.85 525.55 317.35 526.63 300.85 528.46 284.35 530.78 267.85 533.27 268.42 516.79 268.85 500.31 268.99 483.83 268.8 467.35 268.33 450.87 267.75 434.39 267.26 417.91 267.01 401.43 267.09 384.95 267.48 368.47 268.04 351.99 268.59 335.51 268.94 319.03 268.96 302.55 268.67 286.07 268.14 269.59" stroke-dasharray="11 5" transform="rotate(56.56, 400, 400)" opacity="0.47"></path><path d="M279.51 278.52Q294.63 275.77 309.76 273.4 324.88 271.68 340.01 270.82 355.13 270.91 370.26 271.95 385.38 273.82 400.51 276.29 415.63 279.08 430.76 281.85 445.88 284.3 461.01 286.12 476.13 287.11 491.26 287.15 506.38 286.23 521.51 284.47 521.88 299.54 521.99 314.6 521.83 329.66 521.42 344.72 520.9 359.78 520.4 374.85 520.07 389.91 520.01 404.97 520.22 420.03 520.66 435.1 521.19 450.16 521.67 465.22 521.95 480.28 521.96 495.34 521.7 510.41 521.24 525.47 506.11 526.91 490.99 527.65 475.86 527.62 460.74 526.81 445.61 525.33 430.49 523.33 415.36 521.06 400.24 518.79 385.11 516.77 369.99 515.24 354.86 514.39 339.74 514.32 324.61 515.02 309.49 516.42 294.36 518.36 279.24 520.61 279.7 505.48 279.96 490.35 279.95 475.21 279.67 460.08 279.19 444.95 278.66 429.82 278.22 414.69 278.01 399.56 278.07 384.43 278.4 369.3 278.9 354.17 279.42 339.04 279.83 323.91 279.99 308.78 279.88 293.65 279.51 278.52" stroke-dasharray="7 10" transform="rotate(60.599999999999994, 400, 400)" opacity="0.43"></path><path d="M290.8 287.52Q304.55 285.24 318.3 283.42 332.05 282.24 345.8 281.81 359.55 282.17 373.3 283.29 387.05 285.06 400.8 287.31 414.55 289.82 428.3 292.35 442.05 294.64 455.8 296.49 469.55 297.71 483.3 298.18 497.05 297.86 510.8 296.77 510.98 310.45 510.94 324.13 510.67 337.81 510.24 351.49 509.75 365.17 509.32 378.85 509.05 392.53 509.01 406.2 509.19 419.88 509.57 433.56 510.05 447.24 510.51 460.92 510.85 474.6 510.99 488.28 510.9 501.96 510.59 515.64 496.84 516.54 483.09 516.8 469.34 516.41 455.59 515.4 441.84 513.86 428.09 511.95 414.34 509.85 400.59 507.76 386.84 505.89 373.09 504.42 359.34 503.49 345.59 503.18 331.84 503.54 318.09 504.52 304.34 506.04 290.59 507.93 290.9 494.16 290.99 480.38 290.85 466.6 290.51 452.83 290.05 439.05 289.57 425.28 289.19 411.5 289.01 397.72 289.05 383.95 289.32 370.17 289.75 356.4 290.24 342.62 290.67 328.84 290.94 315.07 290.98 301.29 290.8 287.52" stroke-dasharray="1 11" transform="rotate(64.64, 400, 400)" opacity="0.39"></path><path d="M301.96 296.7Q314.34 294.95 326.71 293.69 339.09 292.99 351.46 292.93 363.84 293.5 376.21 294.65 388.59 296.31 400.96 298.33 413.34 300.57 425.71 302.84 438.09 304.96 450.46 306.77 462.84 308.13 475.21 308.92 493.78 315.02 499.8 333.24 499.47 345.54 499.04 357.84 498.61 370.15 498.25 382.45 498.04 394.75 498.01 407.05 498.16 419.35 498.48 431.66 498.9 443.96 499.33 456.26 499.7 468.56 499.94 480.87 499.99 493.17 499.85 505.47 487.48 505.86 475.1 505.71 462.73 505.04 450.35 503.89 437.98 502.35 425.6 500.55 413.23 498.63 400.85 496.74 388.48 495.02 376.1 493.62 363.73 492.64 351.35 492.16 338.98 492.21 326.6 492.8 308.11 488.41 301.94 470.52 301.7 458.11 301.33 445.69 300.9 433.27 300.48 420.86 300.16 408.44 300.01 396.03 300.04 383.61 300.25 371.19 300.61 358.78 301.04 346.36 301.47 333.95 301.8 321.53 301.98 309.11 301.96 296.7" stroke-dasharray="8 9" transform="rotate(68.68, 400, 400)" opacity="0.35"></path><path d="M312.98 306.18Q323.98 304.98 334.98 304.22 345.98 303.95 356.98 304.17 367.98 304.88 378.98 306.03 389.98 307.56 400.98 309.36 411.98 311.32 422.98 313.33 433.98 315.25 444.98 316.97 455.98 318.38 466.98 319.39 483.42 325.44 488.59 341.87 488.24 352.8 487.85 363.73 487.48 374.67 487.19 385.6 487.02 396.53 487.01 407.46 487.14 418.39 487.4 429.32 487.75 440.26 488.14 451.19 488.51 462.12 488.8 473.05 483.47 489.42 466.98 494.38 455.98 493.51 444.98 492.29 433.98 490.8 422.98 489.14 411.98 487.41 400.98 485.72 389.98 484.16 378.98 482.85 367.98 481.85 356.98 481.24 345.98 481.05 334.98 481.28 318.47 476.93 312.8 460.87 312.51 449.82 312.14 438.77 311.75 427.72 311.4 416.67 311.14 405.62 311.01 394.57 311.02 383.52 311.19 372.48 311.48 361.43 311.85 350.38 312.24 339.33 312.59 328.28 312.85 317.23 312.98 306.18" stroke-dasharray="5 4" transform="rotate(72.72, 400, 400)" opacity="0.32"></path><path d="M323.85 316.04Q333.48 315.36 343.1 315.04 352.73 315.1 362.35 315.53 371.98 316.32 381.6 317.43 391.23 318.81 400.85 320.38 410.48 322.08 420.1 323.82 429.73 325.52 439.35 327.11 448.98 328.49 458.6 329.62 472.93 335.44 477.33 350.01 476.99 359.58 476.66 369.14 476.36 378.71 476.14 388.27 476.01 397.84 476.01 407.41 476.11 416.97 476.32 426.54 476.61 436.1 476.95 445.67 477.29 455.23 477.59 464.8 473.08 478.95 458.72 482.82 449.09 481.83 439.47 480.61 429.84 479.22 420.22 477.72 410.59 476.19 400.97 474.69 391.34 473.31 381.72 472.1 372.09 471.13 362.47 470.43 352.84 470.05 343.22 470 328.71 465.74 323.59 451.53 323.29 441.85 322.95 432.17 322.61 422.49 322.32 412.82 322.11 403.14 322.01 393.46 322.01 383.78 322.14 374.11 322.36 364.43 322.66 354.75 322.99 345.07 323.33 335.4 323.63 325.72 323.85 316.04" stroke-dasharray="7 9" transform="rotate(76.76, 400, 400)" opacity="0.28"></path><path d="M334.59 326.35Q351.09 326.13 367.59 327 384.09 328.84 400.59 331.4 417.09 334.32 433.59 337.19 450.09 339.62 466.59 341.27 466.04 357.67 465.48 374.08 465.09 390.48 465.01 406.89 465.26 423.29 465.75 439.7 466.33 456.1 466.8 472.51 450.3 471.04 433.8 468.86 417.3 466.29 400.8 463.67 384.3 461.38 367.8 459.73 351.3 458.95 334.8 459.15 334.33 442.55 333.75 425.95 333.26 409.35 333.01 392.75 333.09 376.15 333.48 359.55 334.04 342.95 334.59 326.35" stroke-dasharray="6 8" transform="rotate(80.80000000000001, 400, 400)" opacity="0.24"></path><path d="M345.24 337.15Q358.99 337.5 372.74 338.57 386.49 340.27 400.24 342.42 413.99 344.83 427.74 347.25 441.49 349.45 455.24 351.22 454.75 364.9 454.32 378.58 454.05 392.26 454.01 405.94 454.19 419.63 454.57 433.31 455.05 446.99 455.51 460.67 441.76 459.06 428.01 457.05 414.26 454.84 400.51 452.65 386.76 450.68 373.01 449.14 359.26 448.16 345.51 447.84 345.05 434 344.57 420.17 344.19 406.33 344.01 392.5 344.05 378.66 344.32 364.82 344.75 350.99 345.24 337.15" stroke-dasharray="10 1" transform="rotate(84.84, 400, 400)" opacity="0.20"></path><path d="M355.85 348.44Q366.85 349.12 377.85 350.24 388.85 351.71 399.85 353.45 410.85 355.34 421.85 357.28 438.16 365.45 443.19 382.71 443.02 393.67 443.01 404.63 443.14 415.59 443.4 426.54 438.45 442.21 422.14 445.19 411.14 443.39 400.14 441.63 389.14 440.01 378.14 438.64 361.45 431.76 355.4 414.84 355.14 403.77 355.01 392.7 355.02 381.64 355.19 370.57 355.48 359.5 355.85 348.44" stroke-dasharray="4 8" transform="rotate(88.88, 400, 400)" opacity="0.16"></path><path d="M366.48 360.18Q382.98 361.98 399.48 364.47 415.98 367.31 432.48 370.11 432.09 386.57 432.01 403.03 432.26 419.49 432.75 435.94 416.25 433.29 399.75 430.6 383.25 428.25 366.75 426.55 366.26 409.96 366.01 393.37 366.09 376.78 366.48 360.18" stroke-dasharray="4 11" transform="rotate(92.92, 400, 400)" opacity="0.13"></path><path d="M377.19 372.34Q388.19 373.78 399.19 375.49 415.61 383.8 421.01 401.24 415.77 416.8 399.4 419.58 382.77 411.71 377.01 394.44 377.02 383.39 377.19 372.34" stroke-dasharray="7 5" transform="rotate(96.96, 400, 400)" opacity="0.09"></path></g></svg>