<?xml version="1.0" encoding="iso-8859-1"?>
<!-- Uploaded to: SVG Repo, www.svgrepo.com, Generator: SVG Repo Mixer Tools -->
<svg height="800px" width="800px" version="1.1" id="Layer_1" xmlns="http://www.w3.org/2000/svg" xmlns:xlink="http://www.w3.org/1999/xlink" 
	 viewBox="0 0 512 512" xml:space="preserve">
<path style="fill:#1E0478;" d="M512,468.181c0.012,6.144-2.382,11.931-6.719,16.28c-4.337,4.349-10.113,6.754-16.257,6.765
	l-465.623,0.633c-0.012,0-0.023,0-0.023,0c-12.679,0-22.999-10.297-23.022-22.976L0,205.762c-0.012-6.144,2.382-11.931,6.719-16.28
	s10.113-6.753,16.257-6.765l465.623-0.633c0.012,0,0.023,0,0.035,0c6.132,0,11.896,2.382,16.245,6.707
	c4.349,4.349,6.753,10.124,6.765,16.268L512,468.181z M488.99,456.872l-0.345-241.319L262.604,372.701
	c-1.967,1.369-4.268,2.059-6.569,2.059c-2.278,0-4.568-0.69-6.535-2.048L23.022,216.208l0.334,240.71l132.481-102.764
	c5.028-3.889,12.253-2.98,16.142,2.048c3.9,5.016,2.98,12.241-2.036,16.142L45.56,468.826l420.546-0.587l-123.657-95.895
	c-5.016-3.9-5.925-11.125-2.036-16.142c3.9-5.028,11.125-5.937,16.142-2.048L488.99,456.872z M256.023,349.253l207.322-144.124
	l-415.058,0.564L256.023,349.253z"/>
<path style="fill:#6F7CCD;" d="M488.645,215.552l0.345,241.319L356.555,354.154c-5.016-3.889-12.241-2.98-16.142,2.048
	c-3.889,5.016-2.98,12.241,2.036,16.142l123.657,95.895L45.56,468.826l124.382-96.482c5.016-3.9,5.937-11.125,2.036-16.142
	c-3.889-5.028-11.114-5.937-16.142-2.048L23.355,456.918l-0.334-240.71L249.5,372.712c1.967,1.358,4.257,2.048,6.535,2.048
	c2.301,0,4.602-0.69,6.569-2.059L488.645,215.552z"/>
<polygon style="fill:#9B8CCC;" points="463.345,205.129 256.023,349.253 48.287,205.693 "/>
<path style="fill:#1E0478;" d="M310.511,62.362c4.74,4.234,5.143,11.505,0.909,16.245c-2.267,2.543-5.419,3.843-8.583,3.843
	c-2.727,0-5.465-0.966-7.662-2.922l-27.67-24.724v88.67c0,6.351-5.154,11.505-11.505,11.505c-6.351,0-11.505-5.154-11.505-11.505
	v-88.67l-27.67,24.724c-4.74,4.234-12.011,3.82-16.245-0.92s-3.831-12.011,0.909-16.245l41.856-37.38
	c7.214-6.454,18.098-6.454,25.311,0L310.511,62.362z"/>
</svg>